<svg id="Layer_1_1_" enable-background="new 0 0 64 64" height="512" viewBox="0 0 64 64" width="512" xmlns="http://www.w3.org/2000/svg"><path d="m41 7h1 2v-4h-38v4h2 1z" fill="#904c2a"/><path d="m59 37h-7.839c-.718 0-1.38-.385-1.737-1.008l-6.848-11.985c-.356-.622-1.019-1.007-1.737-1.007h-1.839-28-2c-1.105 0-2 .895-2 2v14 14h1l4-11h18l5 11h5l3-11h18v-3c0-1.105-.895-2-2-2z" fill="#f35142"/><path d="m41 16 6-4-5-5h-1z" fill="#904c2a"/><path d="m11 20h28v3h-28z" fill="#606060"/><path d="m8 7-5 5 6 4v-9z" fill="#904c2a"/><path d="m43 42-3 11h-5l-5-11h-18l-4 11h-1-2v4h5l5-11h12l3.182 7 1.818 4h11l3-11h15v-4z" fill="#c4c4c4"/><g fill="#606060"><path d="m7 39h-4v14h2 2z"/><path d="m53 49c-3.314 0-6 2.686-6 6s2.686 6 6 6 6-2.686 6-6-2.686-6-6-6zm0 8c-1.105 0-2-.895-2-2s.895-2 2-2 2 .895 2 2-.895 2-2 2z"/><path d="m21 49c-3.314 0-6 2.686-6 6s2.686 6 6 6 6-2.686 6-6-2.686-6-6-6zm0 8c-1.105 0-2-.895-2-2s.895-2 2-2 2 .895 2 2-.895 2-2 2z"/></g><circle cx="53" cy="55" fill="#c4c4c4" r="2"/><circle cx="21" cy="55" fill="#c4c4c4" r="2"/><path d="m11 27h8v10h-8z" fill="#97c5e8"/><path d="m23 27h8v10h-8z" fill="#97c5e8"/><path d="m35 27v10h10l-6-10z" fill="#97c5e8"/><path d="m25 11c0 4.971-4.029 9-9 9h18c-4.971 0-9-4.029-9-9z" fill="#ebdbbe"/><path d="m15 11h10 10v9h4 2v-4-9h-32v9 4h2 4z" fill="#ebdbbe"/><path d="m25 11c0 4.971 4.029 9 9 9h1v-9z" fill="#904c2a"/><path d="m25 11h-10v9h1c4.971 0 9-4.029 9-9z" fill="#904c2a"/><path d="m9.111 25h2.111 29.556 1.942c.156 0 .307.026.457.058l-.6-1.05c-.357-.623-1.02-1.008-1.738-1.008h-1.839-28-2c-1.105 0-2 .895-2 2v2c0-1.105.945-2 2.111-2z" fill="#d14639"/><path d="m17 20v-7h16v7h2v-9h-20v9z" fill="#733d21"/><path d="m59 36h-7.839c-.358 0-.69-.193-.868-.504l-6.849-11.984c-.533-.933-1.531-1.512-2.605-1.512h-.839v-1h1c.552 0 1-.447 1-1v-3.465l5.555-3.703c.25-.166.411-.436.44-.733s-.076-.594-.288-.806l-3.362-3.363c.38-.141.655-.5.655-.93v-4c0-.553-.448-1-1-1h-38c-.552 0-1 .447-1 1v4c0 .43.275.789.655.93l-3.362 3.362c-.212.212-.317.508-.288.806s.191.567.44.733l5.555 3.704v3.465c0 .553.448 1 1 1h1v1h-1c-1.654 0-3 1.346-3 3v13h-3c-.552 0-1 .447-1 1v14c0 .553.448 1 1 1h1v3c0 .553.448 1 1 1h5c.392 0 .748-.229.91-.586l4.734-10.414h10.712l4.734 10.414c.162.357.518.586.91.586h11c.451 0 .846-.302.965-.737l2.799-10.263h13.236v5h2v-6-7c0-1.654-1.346-3-3-3zm-19-17h-4v-8c0-.553-.448-1-1-1h-20c-.552 0-1 .447-1 1v8h-4v-11h30zm-11.954 0h-6.091c1.281-.956 2.341-2.193 3.046-3.643.704 1.45 1.764 2.687 3.045 3.643zm-1.984-7h7.938v7c-4.072 0-7.444-3.06-7.938-7zm-10.062 7v-7h7.938c-.494 3.94-3.866 7-7.938 7zm18 2h1 3v1h-26v-1h3 1zm11.43-9.155-3.43 2.287v-5.718zm-37.43 2.287-3.43-2.287 3.43-3.431zm1-8.132h-2v-2h36v2h-2zm-5 46v-12h2v12zm26.826 0-2.916-6.414c-.162-.357-.518-.586-.91-.586h-12c-.392 0-.748.229-.91.586l-4.734 10.414h-3.356v-2h1 1c.42 0 .796-.263.94-.658l3.76-10.342h16.656l4.091 9zm11.41 4h-9.592l-.909-2h11.047zm17.764-11h-14c-.451 0-.846.302-.965.737l-1.708 6.263h-2.018l2.454-9h16.237zm0-4h-17c-.451 0-.846.302-.965.737l-2.799 10.263h-3.592l-4.734-10.414c-.162-.357-.518-.586-.91-.586h-18c-.42 0-.796.263-.94.658l-3.06 8.416v-11.074-14c0-.552.449-1 1-1h31.839c.358 0 .69.193.868.504l6.849 11.984c.533.933 1.531 1.512 2.605 1.512h7.839c.551 0 1 .448 1 1z"/><path d="m53 48c-3.86 0-7 3.141-7 7s3.14 7 7 7 7-3.141 7-7-3.14-7-7-7zm0 12c-2.757 0-5-2.243-5-5s2.243-5 5-5 5 2.243 5 5-2.243 5-5 5z"/><path d="m21 48c-3.86 0-7 3.141-7 7s3.14 7 7 7 7-3.141 7-7-3.14-7-7-7zm0 12c-2.757 0-5-2.243-5-5s2.243-5 5-5 5 2.243 5 5-2.243 5-5 5z"/><path d="m53 52c-1.654 0-3 1.346-3 3s1.346 3 3 3 3-1.346 3-3-1.346-3-3-3zm0 4c-.551 0-1-.448-1-1s.449-1 1-1 1 .448 1 1-.449 1-1 1z"/><path d="m21 52c-1.654 0-3 1.346-3 3s1.346 3 3 3 3-1.346 3-3-1.346-3-3-3zm0 4c-.551 0-1-.448-1-1s.449-1 1-1 1 .448 1 1-.449 1-1 1z"/><path d="m19 26h-8c-.552 0-1 .447-1 1v10c0 .553.448 1 1 1h8c.552 0 1-.447 1-1v-10c0-.553-.448-1-1-1zm-1 10h-6v-8h6z"/><path d="m31 26h-8c-.552 0-1 .447-1 1v10c0 .553.448 1 1 1h8c.552 0 1-.447 1-1v-10c0-.553-.448-1-1-1zm-1 10h-6v-8h6z"/><path d="m39.857 26.485c-.18-.3-.506-.485-.857-.485h-4c-.552 0-1 .447-1 1v10c0 .553.448 1 1 1h10c.36 0 .693-.193.87-.507.178-.314.173-.699-.013-1.008zm-3.857 9.515v-8h2.434l4.8 8z"/><path d="m35 39h4v2h-4z"/></svg>